<?xml version="1.0" encoding="UTF-8"?>
<svg width="450" height="165" viewBox="0 0 450 165" xmlns="http://www.w3.org/2000/svg">
  <defs>
    <linearGradient id="continuousSpectrum" x1="0%" y1="0%" x2="100%" y2="0%">
      <stop offset="0%" stop-color="#D19FE8"/>
      <stop offset="17%" stop-color="#B0BBDF"/>
      <stop offset="33%" stop-color="#88CCFF"/>
      <stop offset="50%" stop-color="#88FFAA"/>
      <stop offset="67%" stop-color="#FFF088"/>
      <stop offset="83%" stop-color="#FFBD88"/>
      <stop offset="100%" stop-color="#FF8B94"/>
    </linearGradient>
    
    <linearGradient id="edgeDarkening" x1="0%" y1="0%" x2="100%" y2="0%">
      <stop offset="0%" stop-color="#000000" stop-opacity="0.4"/>
      <stop offset="10%" stop-color="#000000" stop-opacity="0"/>
      <stop offset="90%" stop-color="#000000" stop-opacity="0"/>
      <stop offset="100%" stop-color="#000000" stop-opacity="0.4"/>
    </linearGradient>
    
    <mask id="absorptionMask">
      <rect x="30" y="0" width="390" height="100" fill="white"/>
      <!-- 보라색 영역 -->
      <rect x="42" y="0" width="1.5" height="100" fill="black"/>
      <rect x="50" y="0" width="1.5" height="100" fill="black"/>
      
      <!-- 청록색 영역 -->
      <rect x="142" y="0" width="2.5" height="100" fill="black"/>
      <rect x="146" y="0" width="3" height="100" fill="black"/>
      <rect x="155" y="0" width="3" height="100" fill="black"/>
      <rect x="166" y="0" width="2.5" height="100" fill="black"/>
      
      <!-- 녹색 영역 -->
      <rect x="186" y="0" width="3" height="100" fill="black"/>
      <rect x="190" y="0" width="2.5" height="100" fill="black"/>
      <rect x="194" y="0" width="3" height="100" fill="black"/>
      <rect x="202" y="0" width="2.5" height="100" fill="black"/>
    </mask>
  </defs>
  
  <rect width="450" height="165" fill="#F8F8F8"/>
  
  <text x="30" y="40" font-size="14" font-weight="bold" fill="#333" font-family="Arial, sans-serif">
    염소 흡수 스펙트럼
  </text>
  
  <rect x="30" y="45" width="390" height="40" fill="url(#continuousSpectrum)" mask="url(#absorptionMask)"/>
  <rect x="30" y="45" width="390" height="40" fill="url(#edgeDarkening)"/>
  <rect x="30" y="45" width="390" height="40" fill="none" stroke="#CCC" stroke-width="1.5"/>
  
  <text x="30" y="115" font-size="14" font-weight="bold" fill="#333" font-family="Arial, sans-serif">
    염소 방출 스펙트럼
  </text>
  
  <rect x="30" y="120" width="390" height="40" fill="#1A1A1A" stroke="#CCC" stroke-width="1.5"/>
  
  <!-- 방출선들 - 흡수선과 동일한 위치 -->
  <!-- 보라색 영역 -->
  <rect x="42" y="120" width="1.5" height="40" fill="#D19FE8"/>
  <rect x="50" y="120" width="1.5" height="40" fill="#D19FE8"/>
  
  <!-- 청록색 영역 -->
  <rect x="142" y="120" width="2.5" height="40" fill="#88EECC"/>
  <rect x="146" y="120" width="3" height="40" fill="#88FFBB"/>
  <rect x="155" y="120" width="3" height="40" fill="#88FFAA"/>
  <rect x="166" y="120" width="2.5" height="40" fill="#88FFAA"/>
  
  <!-- 녹색 영역 -->
  <rect x="186" y="120" width="3" height="40" fill="#AAFF88"/>
  <rect x="190" y="120" width="2.5" height="40" fill="#AAFF88"/>
  <rect x="194" y="120" width="3" height="40" fill="#AAFF88"/>
  <rect x="202" y="120" width="2.5" height="40" fill="#CCFF88"/>
  
  <rect x="30" y="120" width="390" height="40" fill="url(#edgeDarkening)"/>

</svg>