<?xml version="1.0" encoding="UTF-8"?>
<svg width="450" height="165" viewBox="0 0 450 165" xmlns="http://www.w3.org/2000/svg">
  <defs>
    <linearGradient id="continuousSpectrum" x1="0%" y1="0%" x2="100%" y2="0%">
      <stop offset="0%" stop-color="#D19FE8"/>
      <stop offset="17%" stop-color="#B0BBDF"/>
      <stop offset="33%" stop-color="#88CCFF"/>
      <stop offset="50%" stop-color="#88FFAA"/>
      <stop offset="67%" stop-color="#FFF088"/>
      <stop offset="83%" stop-color="#FFBD88"/>
      <stop offset="100%" stop-color="#FF8B94"/>
    </linearGradient>
    
    <linearGradient id="edgeDarkening" x1="0%" y1="0%" x2="100%" y2="0%">
      <stop offset="0%" stop-color="#000000" stop-opacity="0.4"/>
      <stop offset="10%" stop-color="#000000" stop-opacity="0"/>
      <stop offset="90%" stop-color="#000000" stop-opacity="0"/>
      <stop offset="100%" stop-color="#000000" stop-opacity="0.4"/>
    </linearGradient>
    
    <mask id="absorptionMask">
      <rect x="30" y="0" width="390" height="100" fill="white"/>
      <rect x="50" y="0" width="1" height="100" fill="black"/>
      <rect x="91" y="0" width="2" height="100" fill="black"/>
      <rect x="122" y="0" width="2" height="100" fill="black"/>
      <rect x="150" y="0" width="1" height="100" fill="black"/>
      <rect x="160" y="0" width="2" height="100" fill="black"/>
      <rect x="168" y="0" width="1" height="100" fill="black"/>
      <rect x="274" y="0" width="2" height="100" fill="black"/>
      <rect x="378" y="0" width="2" height="100" fill="black"/>
      <rect x="395" y="0" width="2" height="100" fill="black"/>
      <rect x="410" y="0" width="2" height="100" fill="black"/>
    </mask>
  </defs>
  
  <rect width="450" height="165" fill="#F8F8F8"/>
  
  <text x="30" y="30" font-size="14" font-weight="bold" fill="#333" font-family="Arial, sans-serif">
    헬륨 흡수 스펙트럼
  </text>
  
  <rect x="30" y="45" width="390" height="40" fill="url(#continuousSpectrum)" mask="url(#absorptionMask)"/>
  <rect x="30" y="45" width="390" height="40" fill="url(#edgeDarkening)"/>
  <rect x="30" y="45" width="390" height="40" fill="none" stroke="#CCC" stroke-width="1.5"/>
  
  <text x="30" y="105" font-size="14" font-weight="bold" fill="#333" font-family="Arial, sans-serif">
    헬륨 방출 스펙트럼
  </text>
  
  <rect x="30" y="120" width="390" height="40" fill="#1A1A1A" stroke="#CCC" stroke-width="1.5"/>
  
  <rect x="50" y="120" width="1" height="40" fill="#D19FE8"/>
  <rect x="91" y="120" width="2" height="40" fill="#88CCFF"/>
  <rect x="122" y="120" width="2" height="40" fill="#88CCFF"/>
  <rect x="150" y="120" width="1" height="40" fill="#9FD8D0"/>
  <rect x="160" y="120" width="2" height="40" fill="#88FFAA"/>
  <rect x="168" y="120" width="1" height="40" fill="#88FFAA"/>
  <rect x="274" y="120" width="2" height="40" fill="#FFF088"/>
  <rect x="378" y="120" width="2" height="40" fill="#FF8B94"/>
  <rect x="395" y="120" width="2" height="40" fill="#FF8B94"/>
  <rect x="410" y="120" width="2" height="40" fill="#FF8B94"/>
  
  <rect x="30" y="120" width="390" height="40" fill="url(#edgeDarkening)"/>

</svg>


